# xmcd
#
# Track frame offsets:
#	150
#	13686
#	26822
#	45638
#	57747
#	71639
#	85678
#	98802
#	110613
#	121221
#	133416
#	149608
#	164352
#	175268
#	192528
#	204040
#	220126
#	235378
#	246559
#	261956
#
# Disc length: 3697 seconds
#
# Revision: 0
# Processed by: cddbd v1.5.2PL0 Copyright (c) Steve Scherf et al.
# Submitted via: EasyCDDAExtractor 10.0.5.1
#
DISCID=360e6f14
DTITLE=Dolly Parton - The Very Best Of
DYEAR=2007
DGENRE=Country
TTITLE0=9 To 5
TTITLE1=I Will Always Love You (Original Version)
TTITLE2=Islands In The Stream
TTITLE3=Jolene
TTITLE4=Coat Of Many Colors
TTITLE5=My Tennessee Mountain Home
TTITLE6=Here You Come Again
TTITLE7=Baby I'm Burning
TTITLE8=Love Is Like A Butterfly
TTITLE9=The Bargain Store
TTITLE10=Potential New Boyfriend
TTITLE11=Everything's Beautiful (In It's Own Way)
TTITLE12=Silver Threads And Golden Needles
TTITLE13=To Know Him Is To Love Him
TTITLE14=Why'd You Come In Here Lookin' Like That
TTITLE15=Romeo
TTITLE16=Tennessee Homesick Blues
TTITLE17=Dumb Blonde
TTITLE18=Applejack
TTITLE19=Old Flames Can't Hold A Candle To You
EXTD=
EXTT0=
EXTT1=
EXTT2=
EXTT3=
EXTT4=
EXTT5=
EXTT6=
EXTT7=
EXTT8=
EXTT9=
EXTT10=
EXTT11=
EXTT12=
EXTT13=
EXTT14=
EXTT15=
EXTT16=
EXTT17=
EXTT18=
EXTT19=
PLAYORDER=
